<svg width="44" height="42" viewBox="0 0 44 42" fill="none" xmlns="http://www.w3.org/2000/svg">
<path d="M42.4545 21C46.4545 33.5 33.0525 42 21.4545 42C9.85653 42 -2.54553 31.5 0.454505 21C0.454505 9.40202 9.85653 0 21.4545 0C33.0525 0 42.4545 9.40202 42.4545 21Z" fill="#91D1FF"/>
<ellipse cx="15.9545" cy="16.5" rx="1.5" ry="2.5" fill="#121212"/>
<ellipse cx="26.9545" cy="16.5" rx="1.5" ry="2.5" fill="#121212"/>
<circle cx="27.5" cy="15.5" r="0.5" fill="#EEEFEF"/>
<circle cx="16.5" cy="15.5" r="0.5" fill="#EEEFEF"/>
<path d="M43 38.5C43 39.3284 41.2091 40 39 40C36.7909 40 35 39.3284 35 38.5C35 37.6716 37.2909 35 39.5 35C41.7091 35 44 37 43 38.5Z" fill="#121212"/>
<path d="M1.23431 38.5C1.23431 39.3284 2.97272 40 5.11715 40C7.26159 40 9 39.3284 9 38.5C9 37.6716 6.77624 35 4.6318 35C2.48736 35 0.263597 37 1.23431 38.5Z" fill="#121212"/>
</svg>
